<?xml version="1.0" standalone="no"?>
<!DOCTYPE svg PUBLIC "-//W3C//DTD SVG 20010904//EN"
 "http://www.w3.org/TR/2001/REC-SVG-20010904/DTD/svg10.dtd">
<svg version="1.0" xmlns="http://www.w3.org/2000/svg"
 width="467.000000pt" height="467.000000pt" viewBox="0 0 467.000000 467.000000"
 preserveAspectRatio="xMidYMid meet">
<metadata>
Created by potrace 1.14, written by Peter Selinger 2001-2017
</metadata>
<g transform="translate(0.000000,467.000000) scale(0.100000,-0.100000)"
fill="#000000" stroke="none">
<path d="M1893 4659 c-12 -4 -30 -23 -40 -41 -17 -31 -18 -91 -21 -1035 l-2
-1003 505 0 505 0 1 33 c0 17 0 199 0 403 l-1 371 245 -1 c164 0 245 -4 246
-11 1 -5 0 -558 0 -1227 -1 -670 1 -1218 4 -1218 12 0 1019 1017 1045 1055 74
108 111 233 106 364 -2 47 -6 97 -9 110 -25 96 -57 170 -103 230 -40 53 -1612
1632 -1671 1678 -47 37 -153 93 -191 99 -15 3 -44 9 -64 15 -38 10 -157 13
-194 5 -12 -2 -38 -7 -58 -10 -20 -3 -65 -19 -101 -35 -64 -29 -65 -29 -64 -8
1 40 -11 100 -28 136 -38 83 -67 106 -110 90z m44 -249 c5 -57 -7 -97 -27 -85
-6 4 -6 80 -1 160 3 39 21 -11 28 -75z"/>
<path d="M1217 3626 c-54 -55 -284 -288 -511 -516 -404 -407 -414 -417 -454
-500 -93 -192 -90 -384 10 -573 37 -70 -2 -29 996 -1031 367 -367 685 -683
707 -700 79 -64 177 -106 285 -122 96 -15 253 7 325 44 58 30 61 28 70 -44 16
-122 85 -206 140 -170 51 33 53 59 53 672 0 313 1 727 2 919 0 193 1 380 1
417 l-1 67 -505 0 -505 0 0 -404 0 -404 -247 1 -248 1 1 1223 c0 876 -2 1224
-10 1223 -6 -1 -55 -47 -109 -103z m1548 -3358 c-3 -107 -5 -111 -20 -63 -20
60 -19 122 3 134 9 6 18 11 18 11 1 0 0 -37 -1 -82z"/>
</g>
</svg>
